<?xml version="1.0" encoding="UTF-8"?>
<svg id="Ebene_1" xmlns="http://www.w3.org/2000/svg" version="1.1" viewBox="0 0 452.753 624.907">
  <!-- Generator: Adobe Illustrator 29.1.0, SVG Export Plug-In . SVG Version: 2.1.0 Build 142)  -->
  <defs>
    <style>
      .st0 {
        fill: #fbbd1a;
      }

      .st1 {
        fill: #1d1d1b;
      }

      .st2 {
        fill: #fcbd1c;
      }

      .st3 {
        fill: #bac2c6;
      }

      .st4 {
        fill: #fff200;
      }

      .st5 {
        fill: #df0030;
      }

      .st6 {
        fill: #fdfdfd;
      }
    </style>
  </defs>
  <g id="boundingGroup">
    <g id="RISTL_BAT_4">
      <g>
        <path class="st4" d="M228.856,552.788c0-2.942.152-5.94.373-9.117h-.29c-1.589,3.177-2.859,6.05-4.517,9.117l-6.547,10.678v.138h10.981v-10.816Z"/>
        <path class="st4" d="M226.342,505.368c-8.937,0-17.736,1.105-26.314,3.053-3.232.774-6.423,1.671-9.559,2.694-.663.207-1.34.387-2.017.608-.829.29-1.616.663-2.431.953-2.846,1.036-5.677,2.086-8.412,3.315-.262.11-.511.221-.774.318-2.887,1.326-5.663,2.804-8.426,4.324-.442.249-.912.442-1.354.704-.843.47-1.685.967-2.514,1.464-2.431,1.437-4.793,2.97-7.1,4.545-2.804,1.975-5.567,3.992-8.191,6.188-.29.235-.58.442-.87.691-3.909,3.329-7.556,6.976-11.023,10.816,25.499,23.344,49.893,39.699,66.082,49.354,10.166,6.05,18.081,10.139,22.916,12.487l.014.014c4.876-2.348,12.694-6.326,22.377-12.031,16.23-9.573,40.915-25.983,66.648-49.741-22.612-25.043-54.99-39.754-89.053-39.754ZM228.856,583.868v-11.686h-21.659v-7.445l18.51-29.781h13.993v28.648h5.871v8.578h-5.871v11.686h-10.843Z"/>
        <path class="st1" d="M410.637,447.187c-1.768,3.398-3.591,6.616-5.415,9.904,1.823-3.274,3.647-6.506,5.415-9.904Z"/>
        <path class="st1" d="M426.136,413.51c-1.395,3.439-2.887,6.727-4.337,10.07,1.45-3.357,2.942-6.63,4.337-10.07Z"/>
        <path class="st1" d="M418.649,430.804c-1.561,3.412-3.232,6.672-4.876,9.987,1.63-3.315,3.301-6.575,4.876-9.987Z"/>
        <path class="st1" d="M439.189,376.132c-.843,2.832-1.782,5.498-2.652,8.274.87-2.776,1.81-5.442,2.652-8.274Z"/>
        <path class="st1" d="M402.156,462.671c-1.892,3.274-3.826,6.409-5.774,9.559,1.948-3.149,3.895-6.271,5.774-9.559Z"/>
        <path class="st1" d="M365.482,515.852c-2.39,2.928-4.779,5.705-7.169,8.454,2.39-2.763,4.779-5.525,7.169-8.454Z"/>
        <path class="st1" d="M346.613,537.359c-2.542,2.694-5.042,5.249-7.556,7.777,2.514-2.528,5.014-5.083,7.556-7.777Z"/>
        <path class="st1" d="M356.006,527.027c-2.459,2.804-4.89,5.456-7.335,8.081,2.445-2.638,4.89-5.277,7.335-8.081Z"/>
        <path class="st1" d="M393.329,477.286c-2.031,3.191-4.116,6.244-6.174,9.324,2.058-3.08,4.13-6.133,6.174-9.324Z"/>
        <path class="st1" d="M384.213,491.002c-2.196,3.163-4.42,6.161-6.644,9.186,2.224-3.025,4.448-6.023,6.644-9.186Z"/>
        <path class="st1" d="M374.916,503.848c-2.321,3.08-4.669,6.009-7.003,8.923,2.334-2.928,4.683-5.843,7.003-8.923Z"/>
        <path class="st1" d="M433.014,395.277c-1.146,3.274-2.403,6.382-3.605,9.559,1.202-3.177,2.459-6.271,3.605-9.559Z"/>
        <path class="st1" d="M327.579,556.283c.207-.193.414-.401.622-.594l-.981.912c.11-.111.235-.207.359-.318Z"/>
        <path class="st1" d="M76.76,502.992c-1.437-1.906-2.859-3.923-4.296-5.884,1.45,1.961,2.859,3.992,4.296,5.884Z"/>
        <path class="st1" d="M337.345,546.876c-2.666,2.652-5.318,5.18-7.915,7.639,2.611-2.459,5.249-4.987,7.915-7.639Z"/>
        <path class="st1" d="M67.339,490.063c-1.174-1.685-2.321-3.495-3.495-5.235,1.188,1.741,2.334,3.55,3.495,5.235Z"/>
        <path class="st1" d="M86.318,515.092c-1.727-2.113-3.453-4.351-5.18-6.561,1.727,2.21,3.453,4.448,5.18,6.561Z"/>
        <path class="st1" d="M49.327,461.704c-.704-1.202-1.354-2.5-2.044-3.716.691,1.216,1.34,2.514,2.044,3.716Z"/>
        <path class="st1" d="M114.953,546.462c-2.252-2.21-4.545-4.586-6.824-6.948,2.293,2.362,4.572,4.738,6.824,6.948Z"/>
        <path class="st1" d="M105.491,536.82c-2.127-2.238-4.268-4.614-6.395-6.976,2.141,2.362,4.268,4.724,6.395,6.976Z"/>
        <path class="st1" d="M95.918,526.364c-1.975-2.224-3.937-4.586-5.898-6.907,1.975,2.321,3.937,4.683,5.898,6.907Z"/>
        <path class="st1" d="M123.766,554.915c.138.124.276.249.414.359-2.334-2.155-4.71-4.462-7.1-6.782,2.238,2.182,4.489,4.393,6.686,6.423Z"/>
        <path class="st1" d="M58.181,476.319c-.981-1.533-1.92-3.177-2.887-4.752.967,1.561,1.906,3.205,2.887,4.752Z"/>
        <path class="st1" d="M444.59,356.02c-.483,2.058-1.091,4.006-1.602,6.036.497-2.031,1.105-3.978,1.602-6.036Z"/>
        <path class="st1" d="M32.903,429.948c-.401-.884-.774-1.823-1.174-2.707.401.884.76,1.823,1.174,2.707Z"/>
        <path class="st1" d="M25.499,412.764c-.29-.691-.525-1.437-.801-2.113.29.691.525,1.423.801,2.113Z"/>
        <path class="st1" d="M18.758,394.697c-.193-.539-.345-1.133-.539-1.685.193.539.345,1.133.539,1.685Z"/>
        <path class="st1" d="M12.75,375.731c-.207-.732-.373-1.492-.58-2.224.207.732.373,1.506.58,2.224Z"/>
        <path class="st1" d="M40.859,446.247c-.428-.829-.815-1.713-1.243-2.542.428.829.815,1.713,1.243,2.542Z"/>
        <path class="st1" d="M7.57,355.882c-.249-1.036-.414-2.141-.649-3.191.235,1.05.401,2.155.649,3.191Z"/>
        <path class="st1" d="M449.134,334.913c-.207,1.064-.456,2.072-.677,3.136.207-1.05.47-2.058.677-3.136Z"/>
        <path class="st1" d="M3.288,335.107c-1.257-7.072-2.362-14.31-3.274-21.7.912,7.39,2.017,14.628,3.274,21.7Z"/>
        <path class="st1" d="M323.462,554.998c-.539-.746-1.188-1.395-1.74-2.113-26.217,24.132-51.343,40.832-67.905,50.611-9.987,5.884-18.081,10.001-23.123,12.418l-4.365,2.086-4.351-2.127c-5-2.431-13.178-6.63-23.648-12.888-16.493-9.849-41.343-26.494-67.298-50.211-.566.746-1.216,1.395-1.754,2.141l-2.169,2.984c26.231,23.883,51.219,40.597,67.823,50.501,15.194,9.061,26.065,14.145,30.044,15.913l1.34.594,1.34-.58c3.011-1.312,14.062-6.271,29.56-15.415,16.714-9.849,41.992-26.659,68.458-50.929l-2.21-2.984Z"/>
        <path class="st1" d="M108.792,530.59c4.724,5.028,9.379,9.711,13.979,14.145-4.779-4.614-9.462-9.324-13.979-14.145Z"/>
        <polygon class="st1" points="446.082 312.55 446.109 312.384 446.082 158.92 446.082 158.906 446.082 312.55"/>
        <path class="st1" d="M87.423,505.782c4.047,5.097,8.108,10.015,12.183,14.656-4.199-4.793-8.246-9.683-12.183-14.656Z"/>
        <path class="st1" d="M67.657,478.529c3.246,4.89,6.534,9.642,9.863,14.214-3.398-4.669-6.686-9.421-9.863-14.214Z"/>
        <path class="st1" d="M44.216,437.987c-3.426-6.893-6.63-13.896-9.642-20.996,3.067,7.224,6.271,14.241,9.642,20.996Z"/>
        <path class="st1" d="M31.522,409.808c-3.301-8.26-6.257-16.672-8.979-25.195,2.776,8.661,5.732,17.114,8.979,25.195Z"/>
        <path class="st1" d="M20.167,377.099c-2.611-8.758-4.931-17.626-6.934-26.618,2.044,9.158,4.365,18.026,6.934,26.618Z"/>
        <path class="st1" d="M59.355,465.448c-3.37-5.581-6.616-11.244-9.711-16.99,3.163,5.829,6.395,11.506,9.711,16.99Z"/>
        <path class="st1" d="M440.529,343.574c2.141-10.042,4.075-20.305,5.553-31.01-1.464,10.553-3.412,20.844-5.553,31.01Z"/>
        <path class="st1" d="M11.7,342.953c-1.768-8.744-3.315-17.57-4.503-26.507,1.216,9.103,2.763,17.902,4.503,26.507Z"/>
        <path class="st1" d="M432.255,376.063c2.5-8.316,4.779-16.893,6.81-25.706-1.975,8.702-4.296,17.266-6.81,25.706Z"/>
        <path class="st1" d="M127.841,535.701c1.63,1.589,3.122,3.26,4.793,4.835.041-.041.069-.083.111-.124-1.63-1.561-3.26-3.108-4.904-4.71Z"/>
        <path class="st1" d="M423.939,400.609c1.492-4.033,2.984-8.095,4.393-12.28-1.368,4.158-2.887,8.205-4.393,12.28Z"/>
        <path class="st1" d="M6.644,158.368v154.431l.083.58-.083-155.011q0-.014,0,0Z"/>
        <path class="st1" d="M347.18,298.834c.262-11.12-7.915-26.963-21.742-42.89-.18-.207-.373-.373-.566-.58l-14.78,15.678c11.879,12.225,24.767,21.728,37.088,27.792Z"/>
        <path class="st1" d="M278.86,227.06c4.517,9.462,10.636,19.311,18.109,28.966l11.838-12.28.594,14.435,9.061-9.49c-13.247-12.667-28.331-20.678-39.602-21.631Z"/>
        <path class="st1" d="M197.887,343.712v.069h-1.699c-.124.221-.276.414-.414.622h2.804c-.249-.221-.47-.442-.691-.691Z"/>
        <path class="st1" d="M99.234,216.286l9.103-7.28c-.249-.138-.483-.276-.718-.414-5.263-2.321-11.506-5.028-15.802-6.796l-.138,14.49h7.556Z"/>
        <path class="st1" d="M117.508,200.664c-.097.414-.207.843-.304,1.271l1.589-1.271h-1.285Z"/>
        <path class="st1" d="M120.409,528.201c-15.056-15.526-29.975-33.469-43.719-54.037-1.243-1.865-2.473-3.73-3.688-5.622h13.689v-6.257h21.618l17.211-25.485c3.509,1.437,11.437,4.545,18.91,7.141l-.304-7.956,60.944-10.305.622,20.609-30.002-14.062-16.88,14.379-11.796-1.796c5.318,1.768,10.111,3.108,12.432,3.108l.304,2.113,17.805-15.001,30.941,13.274v-22.018l73.748,28.11v3.509l1.008-.677s4.172.373,8.73,1.506c4.475,1.133,10.249,3.094,14.946,6.451,4.503,3.205,16.023,13.482,26.286,22.806,7.639,6.934,15.54,14.255,19.131,17.598,45.128-54.797,73.431-119.622,83.763-193.743l-.041-150.218c-62.325-40.915-134.858-62.546-209.766-62.546s-147.386,21.631-209.711,62.546l.041,151.434c10.539,83.003,45.639,155.329,103.778,215.14ZM281.816,452.753l-74.992-28.952-62.477,10.885-.414-2.445,63.14-10.995,75.655,29.173-.912,2.334ZM224.312,354.086h3.55l.028,70.944-3.536.014-.041-70.958ZM250.391,408.151c3.633,0,6.575,6.285,6.575,14.062s-2.942,14.076-6.575,14.076-6.561-6.299-6.561-14.076,2.942-14.062,6.561-14.062ZM244.147,394.103c0-7.777,2.942-14.076,6.575-14.076s6.561,6.299,6.561,14.076-2.942,14.062-6.561,14.062c-3.633-.014-6.575-6.299-6.575-14.062ZM264.466,413.773c3.633,0,6.561,6.299,6.561,14.076s-2.928,14.062-6.561,14.062-6.575-6.285-6.575-14.062,2.942-14.076,6.575-14.076ZM258.195,399.711c0-7.777,2.942-14.062,6.575-14.062s6.575,6.285,6.575,14.062-2.942,14.076-6.575,14.076-6.575-6.313-6.575-14.076ZM278.846,448.167c-3.633,0-6.575-6.299-6.575-14.076s2.942-14.076,6.575-14.076,6.561,6.313,6.561,14.076c-.014,7.777-2.956,14.076-6.561,14.076ZM279.15,420.016c-3.633,0-6.575-6.285-6.575-14.062s2.942-14.076,6.575-14.076,6.561,6.299,6.561,14.076-2.942,14.062-6.561,14.062ZM255.819,298.654c-9.531-13.799-13.965-28.151-9.697-37.544l5.456,2.859c-2.942,6.81,1.547,17.612,9.711,29.021l11.078-11.479c-5.581-7.625-9.932-15.443-12.763-22.902-2.459.138-4.683.649-6.354,1.92-.47.345-3.757-5.581-3.757-5.581.525-.58.732-1.146,1.381-1.63,1.782-1.354,3.978-2.044,6.354-2.445-1.837-7.735-1.74-14.822.843-20.485l7.031,3.688c-1.961,4.517-1.298,10.429,1.146,17.073,7.293,1.506,15.623,5.691,23.786,12.087l.995-1.036c-8.965-11.244-16.382-22.612-21.604-33.552-.704.345-1.533.525-2.155.981-.594.456-4.862-7.21-4.862-7.21.691-.76.939-1.464,1.768-2.1.414-.318.981-.414,1.437-.691-4.904-13.371-6.105-25.72-1.616-35.61l8.316,2.5c-3.246,7.501-2.017,18.302,2.334,30.389,13.827-1.091,33.096,8.343,50.211,25.154l29.229-30.596c-27.916-26.811-61.538-39.796-76.414-28.566-.884.677-7.224-10.719-7.224-10.719,1.022-1.133,1.409-2.196,2.638-3.136,19.048-14.393,57.698.124,90.518,32.461l14.711-15.415-1.671,23.869,35.237-33.193-7.708-9.227,23.234-1.589-.221,1.202c-.76,4.254-2.79,15.139-4.13,22.695l-.428,2.417-1.326-2.072c-1.961-3.053-4.31-6.492-5.442-8.136-3.992,4.268-21.825,23.317-35.486,38.166,27.737,34.74,39.658,69.812,21.88,89.689l-10.526-10.015c11.354-13.413,1.823-40.735-20.734-69.452-2.044,2.279-3.826,4.254-5.028,5.65l-2.169,2.514,2.169-14.379c-.622-.732-1.146-1.45-1.782-2.196-1.271-1.464-2.666-2.735-3.978-4.13l-29.063,30.79c.262.29.525.525.787.815,16.451,18.979,26.231,38.566,24.422,53.222,13.482,4.821,25.513,5.18,33.221-.677l5.373,9.365c-10.277,7.224-25.333,6.92-41.951.456-.649,1.064-1.146,2.21-2.017,3.163l-7.031-6.755c.124-.138.166-.345.276-.497-12.929-6.534-26.355-16.562-39.16-29.74,9.282,11.175,15.54,22.488,17.004,32.102,7.501,2.528,14.172,2.403,19.035-1.271l5,7.155c-5.94,4.172-14.559,4.766-24.187,2.362-.58,3.08-1.727,5.898-3.826,8.26l-5.456-5.221c1.216-1.437,1.823-3.232,2.155-5.208-11.852-4.614-24.656-13.495-35.873-26.425-.649-.746-1.216-1.533-1.837-2.293l-11.865,10.733c1.202,1.492,2.417,2.997,3.716,4.489,15.277,17.626,32.419,26.065,41.509,19.186l3.868,5.525c-11.133,7.832-34.201.235-52.02-20.319-1.022-1.188-1.948-2.403-2.901-3.619l-34.008,30.762-2.044-1.975,32.489-33.635ZM181.629,355.177c0-4.006,3.218-7.224,7.197-7.307v-.553c-3.509-.553-6.257-3.453-6.257-7.141,0-4.061,3.288-7.349,7.335-7.349.718,0,1.381.221,2.031.414v-15.415h.304v-23.441h.304v-25.319h1.879v-33.759h2.818v33.759h1.257v25.941h-.318v23.123h-.304v16.009c1.354-1.533,3.26-2.569,5.47-2.569,4.047,0,7.335,3.288,7.335,7.335,0,4.02-3.232,7.266-7.224,7.321v.483c3.702.387,6.616,3.398,6.616,7.197,0,3.895-3.067,7.031-6.907,7.252l-.138,6.838c1.008-1.381,2.155-2.362,3.453-2.362,3.55,0,6.409,5.871,6.409,13.109s-2.859,13.122-6.409,13.122c-1.478,0-2.79-1.202-3.881-2.956l-.138,6.672c.925-1.064,1.948-1.851,3.094-1.851,3.536,0,6.409,5.884,6.409,13.136s-2.873,13.109-6.409,13.109c-1.34,0-2.514-1.036-3.536-2.473l-.055,3.094c-5.346.566-11.202.622-12.363.635-.925,1.077-1.961,1.879-3.108,1.879-3.55,0-6.409-5.884-6.409-13.122s2.859-13.122,6.409-13.122c.912,0,1.768.414,2.555,1.105l-.014-4.627c-.939,1.133-1.989,1.961-3.163,1.961-3.536,0-6.409-5.884-6.409-13.109s2.873-13.136,6.409-13.136c1.146,0,2.155.774,3.08,1.837l-.028-8.398c-4.047-.041-7.293-3.288-7.293-7.321ZM162.222,358.147l.041,65.322h-3.55l-.028-65.322h3.536ZM86.76,132.482l.207,5.056c.18-1.506.332-2.928.483-4.172l.497-.028,6.506,26.342c1.81-.649,3.743-1.354,5.636-2.044,3.633-1.34,7.39-2.707,9.945-3.564l.235-.069.069.166c1.644-.594,3.191-1.146,4.489-1.589l.235-.069.083.221c2.459,6.036,6.686,20.112,3.895,39.754l19.767-17.253-5.373-6.271,19.407-1.796-6.575,17.929-4.793-4.489-18.344,16.88,10.581,1.022-23.123,17.778h1.381l4.669,3.37-4.158,3.481,4.116,3.412-4.572,3.978h-1.464v2.832l-8.067,3.177h-.774l24.049,16.272-7.017,1.243,26.204,19.104-10.678,11.686-31.37-34.036h5.829l-15.927-14.255h-1.34l-.539,54.23h-12.75v-.262l1.16-51.937-.318,2.362-13.827,9.876,7.556.276-32.254,35.541-11.562-13.399,26.507-19.159-7.183-.594,23.676-16.921h-2.279l-6.603-3.26-.014-2.735h-1.616l-3.481-3.978,3.122-3.426-3.467-2.942,3.868-3.923h18.371l.428-19.104c-1.768-.718-3.536-1.423-5.263-2.086-3.26-1.271-6.326-2.473-9.213-3.812l-.152-.069v-10.954h-23.966l24.808,20.361-7.169,1.796,16.12,13.606h-10.401l-24.532-17.529,11.064-1.188-18.827-16.728-4.448,5.373-6.368-19.407,19.477,2.68-4.779,6.879,4.724,3.868-.041-.235,37.779-14.973c.483-1.782,6.05-22.433,7.183-32.309l.497.014Z"/>
        <path class="st1" d="M313.835,306.417c-2.307-7.542-7.694-16.479-15.526-25.527-2.072-2.403-4.282-4.6-6.534-6.672l-7.128,6.451c.953,1.146,1.851,2.307,2.845,3.453,8.688,10.001,17.819,17.543,26.342,22.294Z"/>
        <path class="st1" d="M279.495,274.108l5.373-5.567c-4.821-3.522-9.642-6.161-14.186-7.873,2.417,4.351,5.387,8.854,8.813,13.44Z"/>
        <path class="st1" d="M413.676,425.763c-.11.221-.221.442-.304.663.097-.221.193-.456.304-.663Z"/>
        <path class="st1" d="M328.394,546.296c3.937-3.799,7.943-7.846,11.99-12.114-3.909,4.089-7.873,8.15-11.99,12.114Z"/>
        <path class="st1" d="M271.428,57.449c.318-3.716-1.381-6.672-6.188-7.1l-4.075-.359-1.133,13.012,4.324.373c4.185.373,6.727-1.961,7.072-5.926Z"/>
        <path class="st1" d="M129.208,54.769c4.047-.939,6.299-3.647,5.332-7.873-1.091-4.766-3.868-5.373-8.15-4.379l-3.108.704,2.832,12.252,3.094-.704Z"/>
        <path class="st1" d="M295.795,68.858c4.448.787,6.658-2.238,7.639-7.777l.304-1.74-.663-.111c-6.382-1.133-10.401-.47-11.202,4.033-.47,2.818,1.05,5.083,3.923,5.594Z"/>
        <path class="st1" d="M272.326,38.843c.304-3.591-2.044-5.94-5.76-6.271l-3.826-.332-1.064,12.045,4.02.345c3.826.332,6.313-2.321,6.63-5.788Z"/>
        <path class="st1" d="M6.893,115.754c.041,12.377.083,25.181.055,34.422,48.194-31.08,128.656-63.057,221.936-63.057,68.071,0,142.966,17.018,217.184,63.858v-77.16C381.091,29.864,305.146,6.644,226.342,6.644S71.676,29.864,6.672,73.804c.041,7.252.138,24.518.221,41.951ZM319.94,46.329l4.89,1.133,1.45-6.313,7.887-.553-1.975,8.564,6.119,1.423-1.257,5.415-6.105-1.423-3.674,15.885c-.76,3.274.221,4.503,2.362,5,1.312.29,2.334.166,2.942-.014l-1.202,5.235c-1.257.276-2.984.387-5.18-.124-5.47-1.257-7.984-4.475-6.506-10.899l3.868-16.769-4.876-1.133,1.257-5.429ZM302.936,55.114l1.506.262.207-1.146c.539-3.067-.47-6.161-4.738-6.907-3.73-.649-7.349.566-9.006,1.506l.649-6.078c2.265-.594,5.456-1.395,10.194-.566,9.614,1.699,11.023,6.782,9.642,14.531l-2.39,13.537c-.387,2.224-.497,4.31-.539,5.539l-6.727-1.188c-.152-1.271.055-2.776.318-4.282l-.124-.014c-2.307,2.196-5.028,3.951-9.49,3.163-4.821-.856-8.675-4.931-7.666-10.705,1.506-8.426,8.73-9.324,18.164-7.652ZM255.681,25.858l12.404,1.091c8.771.774,12.487,4.406,11.852,11.575-.58,6.755-5.014,8.385-7.901,9.172l-.014.124c3.218,1.008,7.763,3.743,7.141,10.857-.677,7.722-6.686,11.423-14.228,10.76l-12.957-1.133,3.702-42.448ZM219.712,21.935h7.583v45.791h-7.583V21.935ZM198.053,30.651l7.445-2.707.456,8.785,6.271-.332.29,5.553-6.285.318.87,16.286c.18,3.357,1.437,4.268,3.633,4.144,1.354-.069,2.307-.483,2.832-.815l.29,5.36c-1.119.608-2.749,1.188-5,1.298-5.608.29-8.923-2.1-9.255-8.688l-.898-17.197-5,.262-.29-5.553,4.987-.262-.345-6.451ZM178.645,38.47c4.006-.428,7.197.29,7.956.456l.193,5.871c-1.961-.539-4.033-.995-6.755-.704-3.039.318-4.199,1.602-3.992,3.481.18,1.699,1.602,2.473,3.937,3.633l3.951,1.989c4.144,2.072,6.271,3.633,6.644,7.28.622,5.774-3.881,9.738-10.678,10.457-3.881.414-7.197-.166-8.84-.594l-.29-6.299c1.271.359,4.531,1.602,8.053,1.243,2.721-.29,4.793-1.174,4.531-3.605-.138-1.216-.87-2.307-3.757-3.591l-3.274-1.492c-3.357-1.547-7.031-3.191-7.556-8.108-.456-4.324,3.246-9.31,9.876-10.015ZM164.777,72.408l-7.487,1.188-4.904-31.052,7.473-1.188,4.917,31.052ZM157.884,28.137l1.16,7.362-7.722,1.216-1.16-7.362,7.722-1.216ZM127.288,36.149c7.376-1.713,13.15.47,14.904,8.081,1.257,5.415-1.312,9.821-5.774,11.617l.041.18c1.589-.111,3.495.193,5.691,3.757l9.061,14.573-8.095,1.879-7.21-12.556c-1.768-3.039-3.978-3.66-6.768-3.011l-1.727.401,4.116,17.847-7.611,1.754-9.6-41.522,12.971-2.997Z"/>
        <path class="st1" d="M174.557,3.55C191.63,1.34,208.896,0,226.342,0c-17.446,0-34.699,1.326-51.785,3.55Z"/>
        <path class="st1" d="M6.644,156.24l4.503-2.956c63.955-41.978,138.366-64.176,215.195-64.176s151.282,22.184,215.223,64.176l4.517,2.942v2.666h0l-.014-85.089v77.146c-74.218-46.813-149.113-63.831-217.184-63.831-93.28,0-173.742,31.977-221.936,63.057.028-9.241-.014-22.046-.055-34.422-.083-17.432-.18-34.699-.221-41.937C71.663,29.864,147.58,6.644,226.342,6.644,147.566,6.644,71.649,29.864,6.644,73.817v84.536h0s0-2.113,0-2.113Z"/>
        <path class="st6" d="M131.515,78.914l-4.103-17.847,1.727-.401c2.79-.635,5-.028,6.768,3.011l7.21,12.556,8.095-1.879-9.061-14.573c-2.196-3.55-4.103-3.868-5.691-3.757l-.041-.166c4.462-1.782,7.031-6.202,5.774-11.617-1.754-7.611-7.528-9.794-14.904-8.081l-12.971,2.984,9.586,41.522,7.611-1.754ZM126.376,42.503c4.282-.995,7.059-.373,8.15,4.379.967,4.227-1.285,6.934-5.332,7.873l-3.08.718-2.832-12.252,3.094-.718Z"/>
        <rect class="st6" x="150.68" y="28.704" width="7.818" height="7.445" transform="translate(-3.164 24.465) rotate(-8.957)"/>
        <rect class="st6" x="154.771" y="41.765" width="7.584" height="31.44" transform="translate(-7.046 25.539) rotate(-9.009)"/>
        <path class="st6" d="M176.311,56.579l3.274,1.492c2.901,1.285,3.633,2.376,3.757,3.591.262,2.431-1.81,3.315-4.531,3.605-3.522.359-6.782-.884-8.053-1.243l.29,6.299c1.644.442,4.945,1.008,8.84.594,6.796-.718,11.299-4.683,10.678-10.457-.373-3.647-2.514-5.194-6.644-7.28l-3.951-1.989c-2.334-1.16-3.757-1.934-3.937-3.633-.207-1.879.953-3.163,3.992-3.481,2.721-.29,4.807.166,6.755.704l-.193-5.871c-.76-.166-3.951-.87-7.956-.456-6.616.691-10.332,5.691-9.89,10.001.539,4.931,4.213,6.575,7.57,8.122Z"/>
        <path class="st6" d="M193.674,42.931l5-.262.898,17.197c.332,6.589,3.647,8.979,9.255,8.688,2.252-.111,3.881-.691,5-1.298l-.29-5.36c-.525.332-1.478.746-2.832.815-2.182.124-3.453-.801-3.633-4.144l-.87-16.286,6.285-.318-.29-5.553-6.244.318-.456-8.785-7.445,2.707.332,6.465-4.987.262.276,5.553Z"/>
        <rect class="st6" x="219.712" y="21.935" width="7.583" height="45.791"/>
        <path class="st6" d="M279.164,58.678c.622-7.114-3.909-9.849-7.141-10.857l.014-.124c2.887-.787,7.321-2.417,7.901-9.172.635-7.183-3.094-10.816-11.852-11.575l-12.404-1.091-3.716,42.462,12.957,1.133c7.556.649,13.564-3.053,14.241-10.774ZM262.74,32.24l3.826.332c3.716.332,6.064,2.68,5.76,6.271-.304,3.467-2.804,6.119-6.63,5.788l-4.02-.345,1.064-12.045ZM260.032,63.016l1.133-13.012,4.075.359c4.821.428,6.52,3.384,6.188,7.1-.345,3.964-2.887,6.313-7.086,5.94l-4.31-.387Z"/>
        <path class="st6" d="M292.452,73.472c4.448.787,7.183-.967,9.49-3.163l.124.014c-.276,1.506-.47,3.011-.318,4.282l6.727,1.188c.041-1.229.152-3.315.539-5.539l2.39-13.523c1.381-7.763-.028-12.832-9.642-14.531-4.752-.843-7.929-.028-10.194.566l-.649,6.078c1.658-.939,5.29-2.169,9.006-1.506,4.268.76,5.277,3.84,4.738,6.907l-.221,1.133-1.506-.262c-9.434-1.671-16.659-.774-18.137,7.652-1.022,5.76,2.832,9.849,7.652,10.705ZM303.074,59.217l.663.111-.304,1.74c-.967,5.525-3.177,8.55-7.639,7.777-2.873-.511-4.393-2.763-3.909-5.594.787-4.489,4.807-5.152,11.189-4.033Z"/>
        <path class="st6" d="M319.705,69.646c-1.478,6.423,1.036,9.642,6.506,10.899,2.196.511,3.923.401,5.18.124l1.202-5.235c-.608.18-1.63.304-2.942.014-2.141-.497-3.122-1.727-2.362-5l3.674-15.885,6.119,1.423,1.257-5.415-6.133-1.409,1.975-8.564-7.887.553-1.45,6.313-4.89-1.133-1.243,5.415,4.876,1.133-3.881,16.769Z"/>
        <rect class="st5" x="158.713" y="358.147" width="3.536" height="65.322"/>
        <rect class="st6" x="224.339" y="354.086" width="3.55" height="70.958"/>
        <polygon class="st3" points="235.114 454.853 255.626 466.028 270.075 466.028 282.272 457.906 282.272 454.397 208.523 426.287 208.523 448.292 219.422 452.961 235.114 454.853"/>
        <path class="st6" d="M158.824,446.593l16.88-14.379,30.002,14.062-.622-20.609-60.944,10.305.304,7.956c.87.29,1.727.594,2.583.87l11.796,1.796Z"/>
        <polygon class="st3" points="143.933 432.241 144.347 434.686 206.838 423.801 281.816 452.753 282.727 450.433 207.073 421.246 143.933 432.241"/>
        <polygon class="st6" points="198.205 295.021 198.523 295.021 198.523 269.08 197.266 269.08 194.448 269.08 192.569 269.08 192.569 294.4 198.205 294.4 198.205 295.021"/>
        <polygon class="st5" points="197.887 318.144 198.205 318.144 198.205 295.021 198.205 294.4 192.569 294.4 192.265 294.4 192.265 317.84 197.887 317.84 197.887 318.144"/>
        <path class="st6" d="M196.423,336.916c.304-1.036.774-1.975,1.464-2.763v-16.313h-5.926v15.415c1.961.553,3.55,1.865,4.462,3.661Z"/>
        <path class="st6" d="M197.887,343.712c-.401-.456-.746-.967-1.022-1.519-.166.566-.373,1.091-.677,1.589h1.699v-.069Z"/>
        <path class="st5" d="M195.718,352.277c.774-3.218,3.536-5.691,7.003-5.691.262,0,.483.124.732.152v-.483c-.028,0-.069.028-.111.028-1.851,0-3.495-.746-4.793-1.879h-2.804c-1.34,1.851-3.398,3.136-5.857,3.136-.387,0-.718-.166-1.077-.221v.553c.055,0,.097-.028.152-.028,3.053,0,5.636,1.837,6.755,4.434Z"/>
        <path class="st5" d="M192.265,382.223c0,4.835-1.34,8.896-3.246,11.161l.014,4.627c2.265,2.031,3.854,6.63,3.854,12.017,0,4.89-1.368,8.979-3.301,11.244,1.146-.014,7.003-.069,12.363-.635l.055-3.094c-1.685-2.362-2.873-6.133-2.873-10.65,0-4.917,1.368-9.034,3.315-11.285l.138-6.672c-1.492-2.403-2.528-5.967-2.528-10.166,0-4.572,1.216-8.412,2.956-10.747l.138-6.838c-.152.014-.29.097-.442.097-3.025,0-5.608-1.837-6.741-4.448-.76,3.232-3.522,5.705-7.003,5.705-.028,0-.055-.014-.083-.014l.028,8.398c1.975,2.238,3.357,6.382,3.357,11.299Z"/>
        <rect class="st5" x="194.448" y="235.321" width="2.818" height="33.759"/>
        <path class="st6" d="M195.774,344.403c.152-.207.29-.401.414-.622.29-.497.511-1.022.677-1.589-.511-.995-.856-2.072-.856-3.26,0-.718.221-1.368.401-2.017-.898-1.796-2.5-3.108-4.462-3.674-.663-.207-1.312-.414-2.031-.414-4.047,0-7.335,3.288-7.335,7.349,0,3.688,2.749,6.589,6.257,7.141.359.055.691.221,1.077.221,2.459-.014,4.517-1.285,5.857-3.136Z"/>
        <path class="st6" d="M195.995,356.821c-.387-.884-.594-1.879-.594-2.901,0-.58.207-1.091.332-1.644-1.119-2.597-3.716-4.434-6.741-4.434-.055,0-.097.028-.152.028-3.992.083-7.197,3.301-7.197,7.307,0,4.033,3.246,7.28,7.266,7.335.028,0,.055.014.083.014,3.481,0,6.244-2.459,7.003-5.705Z"/>
        <path class="st6" d="M196.009,338.919c0,1.188.345,2.265.856,3.26.276.553.622,1.064,1.022,1.519.221.249.442.47.691.691,1.298,1.133,2.942,1.879,4.793,1.879.041,0,.069-.028.111-.028,3.992-.055,7.224-3.301,7.224-7.321,0-4.047-3.288-7.335-7.335-7.335-2.21,0-4.13,1.022-5.47,2.569-.691.801-1.16,1.727-1.464,2.763-.207.649-.428,1.298-.428,2.003Z"/>
        <path class="st6" d="M195.718,352.277c-.124.553-.332,1.064-.332,1.644,0,1.022.221,2.017.594,2.901,1.133,2.611,3.716,4.448,6.741,4.448.152,0,.29-.083.442-.097,3.84-.235,6.907-3.357,6.907-7.252,0-3.785-2.915-6.796-6.616-7.197-.262-.028-.47-.152-.732-.152-3.453.014-6.23,2.486-7.003,5.705Z"/>
        <path class="st3" d="M188.936,370.924c-.925-1.064-1.934-1.837-3.08-1.837-3.536,0-6.409,5.884-6.409,13.136s2.873,13.109,6.409,13.109c1.174,0,2.224-.829,3.163-1.961,1.906-2.265,3.246-6.326,3.246-11.161,0-4.904-1.381-9.048-3.329-11.285Z"/>
        <path class="st3" d="M189.047,398.012c-.787-.691-1.644-1.105-2.555-1.105-3.55,0-6.409,5.884-6.409,13.122s2.859,13.122,6.409,13.122c1.146,0,2.169-.801,3.108-1.879,1.934-2.265,3.301-6.368,3.301-11.244,0-5.387-1.589-9.987-3.854-12.017Z"/>
        <path class="st3" d="M202.597,388.937c1.091,1.754,2.403,2.956,3.881,2.956,3.55,0,6.409-5.871,6.409-13.122s-2.859-13.109-6.409-13.109c-1.298,0-2.445.981-3.453,2.362-1.74,2.334-2.956,6.174-2.956,10.747,0,4.213,1.036,7.777,2.528,10.166Z"/>
        <path class="st3" d="M202.017,417.558c1.036,1.437,2.196,2.473,3.536,2.473,3.536,0,6.409-5.871,6.409-13.109s-2.873-13.136-6.409-13.136c-1.146,0-2.155.787-3.094,1.851-1.948,2.252-3.315,6.368-3.315,11.285,0,4.489,1.174,8.274,2.873,10.636Z"/>
        <ellipse class="st3" cx="250.709" cy="394.089" rx="6.561" ry="14.062"/>
        <ellipse class="st3" cx="264.77" cy="399.711" rx="6.575" ry="14.062"/>
        <ellipse class="st3" cx="279.15" cy="405.954" rx="6.575" ry="14.062"/>
        <ellipse class="st3" cx="250.391" cy="422.213" rx="6.575" ry="14.062"/>
        <ellipse class="st3" cx="264.466" cy="427.834" rx="6.561" ry="14.062"/>
        <ellipse class="st3" cx="278.846" cy="434.092" rx="6.575" ry="14.076"/>
        <path class="st3" d="M306.956,465.185c-4.696-3.357-10.47-5.318-14.946-6.451-4.558-1.133-8.73-1.506-8.73-1.506l-1.008.677-12.197,8.122h-14.449l-20.499-11.175-15.706-1.892-10.899-4.669-30.941-13.274-17.805,15.001-.304-2.113c-2.321,0-7.114-1.34-12.432-3.108-.856-.29-1.713-.58-2.583-.87-7.473-2.597-15.388-5.705-18.91-7.141l-17.211,25.485h-21.645v6.257h-13.689c1.216,1.906,2.445,3.757,3.688,5.622l14.255-1.381v-6.244h19.642l16.534-24.518c9.006,3.564,19.435,6.824,28.897,8.951l-17.184,19.988,4.365-2.804,34.146-29.975,40.901,18.924,15.554,1.879,20.747,11.313h16.811l12.998-8.675c6.672.856,14.67,3.136,20.112,7.031,4.254,3.039,15.54,13.067,25.913,22.502,5.47,4.973,13.841,12.542,19.38,17.57.87-1.036,1.754-2.072,2.597-3.122-3.591-3.343-11.493-10.664-19.131-17.598-10.249-9.324-21.769-19.601-26.273-22.806Z"/>
        <path class="st6" d="M157.442,527.358c2.307-1.575,4.669-3.122,7.1-4.545-2.403,1.437-4.793,2.928-7.1,4.545Z"/>
        <path class="st6" d="M148.395,534.237c.29-.249.58-.456.87-.691-.29.249-.594.442-.87.691Z"/>
        <path class="st6" d="M168.216,520.659c-.387.221-.774.456-1.16.691.442-.262.912-.456,1.354-.704l-.193.014Z"/>
        <path class="st6" d="M304.469,468.639c-5.456-3.895-13.44-6.174-20.112-7.031l-12.998,8.675h-16.811l-20.747-11.313-15.554-1.879-40.901-18.91-34.146,29.975-4.365,2.804,17.184-19.988c-9.462-2.127-19.877-5.401-28.897-8.951l-16.534,24.518h-19.642v6.244l-14.255,1.381c13.744,20.568,28.662,38.511,43.719,54.037,2.445,2.528,4.904,5.028,7.431,7.501,1.644,1.602,3.274,3.163,4.89,4.71,10.236-11.258,22.294-20.554,35.638-27.447l-.152-6.962-35.003,20.43-1.271-2.155,36.204-21.148-.014-.414-3.122-.677-34.671,20.167-1.782-3.067,31.314-18.22-21.369-4.627,10.636-11.866-2.182-15.001,32.185-26.88s22.184,10.015,24.062,14.379,6.244,9.379,6.244,15.623.635,8.136.635,8.136l12.819,9.061,10.94-.304,7.183,7.183,14.076.939,3.895,5.663c23.399,6.285,44.644,19.214,61.082,37.337,10.65-10.153,20.443-20.816,29.698-31.825-5.539-5.028-13.924-12.598-19.38-17.57-10.387-9.462-21.673-19.49-25.927-22.529ZM334.458,499.414l-15.001-3.136-5.318,7.818-9.683-9.393-17.501-.925,2.182-18.744-3.439-10.015s14.683,5.94,20.955,9.061c6.244,3.136,27.806,25.333,27.806,25.333Z"/>
        <path class="st3" d="M188.453,511.722c-.801.276-1.63.456-2.431.746v.221c.815-.304,1.602-.677,2.431-.967Z"/>
        <path class="st3" d="M176.836,516.321c-2.928,1.34-5.802,2.763-8.619,4.324l.193-.014c2.763-1.506,5.539-2.984,8.426-4.31Z"/>
        <path class="st3" d="M190.469,511.114c3.149-1.022,6.326-1.934,9.559-2.694-3.246.732-6.409,1.699-9.559,2.694Z"/>
        <path class="st3" d="M167.885,491.914l18.441-6.879-.221,20.416c12.846-4.324,26.397-6.727,40.238-6.727,11.161,0,22.087,1.644,32.64,4.489l-3.895-5.663-14.076-.939-7.183-7.183-10.94.304-12.819-9.061s-.635-1.879-.635-8.136-4.365-11.244-6.244-15.623-24.062-14.379-24.062-14.379l-32.185,26.88,2.182,15.001-10.636,11.866,21.369,4.627,8.095-4.71-.069-4.282Z"/>
        <polygon class="st3" points="165.012 502.025 168.134 502.702 168.078 500.243 165.012 502.025"/>
        <path class="st3" d="M285.711,465.019l3.439,10.015-2.182,18.744,17.501.925,9.683,9.393,5.318-7.818,15.001,3.136s-21.562-22.184-27.806-25.319c-6.271-3.136-20.955-9.075-20.955-9.075Z"/>
        <path class="st6" d="M186.022,512.468c-2.873,1.022-5.636,2.279-8.412,3.536,2.749-1.229,5.581-2.279,8.412-3.315v-.221Z"/>
        <path class="st6" d="M167.885,491.914l.097,4.296.58-.331-.055-2.39,15.94-6.879-.235,19.394c.608-.221,1.257-.331,1.879-.553l.221-20.416-18.427,6.879Z"/>
        <polygon class="st6" points="168.741 502.785 168.672 499.898 168.078 500.243 168.134 502.702 168.147 503.116 168.741 502.785"/>
        <path class="st6" d="M168.99,512.606l-.18-6.976-.594.359.152,6.962c.207-.11.414-.249.622-.345Z"/>
        <path class="st1" d="M168.507,493.475l.055,2.39,7.804-4.545,1.782,3.067-9.49,5.511.069,2.887,9.766-5.705,1.271,2.155-10.954,6.396.18,6.976c4.931-2.514,10.015-4.752,15.236-6.616l.235-19.394-15.954,6.879Z"/>
        <polygon class="st0" points="168.672 499.898 178.148 494.372 176.38 491.32 168.576 495.864 167.982 496.196 159.887 500.906 128.573 519.126 130.355 522.192 165.012 502.025 168.078 500.243 168.672 499.898"/>
        <polygon class="st0" points="168.81 505.63 179.778 499.235 178.507 497.08 168.741 502.785 168.147 503.116 131.943 524.264 133.214 526.433 168.216 505.989 168.81 505.63"/>
        <polygon class="st2" points="41.343 179.985 36.619 176.104 41.398 169.239 21.921 166.545 28.289 185.953 32.737 180.593 51.551 197.321 40.5 198.509 65.032 216.01 75.447 216.01 59.327 202.404 66.483 200.608 41.674 180.248 41.398 180.248 41.343 179.985"/>
        <path class="st0" d="M118.793,200.664l-1.589,1.271c-.801,3.26-1.74,6.616-2.97,10.111l-.111.276-.276-.152c-1.699-.981-3.591-2.058-5.525-3.163l-9.103,7.28h11.354l23.137-17.778-10.595-1.05,18.344-16.88,4.793,4.489,6.575-17.929-19.407,1.796,5.373,6.271-19.767,17.253c-.373,2.638-.856,5.359-1.506,8.191h1.271v.014Z"/>
        <polygon class="st0" points="71.939 236.564 48.263 253.471 55.446 254.079 28.939 273.238 40.5 286.637 72.768 251.095 65.212 250.805 79.039 240.929 79.357 238.567 79.398 236.564 71.939 236.564"/>
        <polygon class="st2" points="108.723 250.805 102.894 250.805 134.278 284.841 144.969 273.183 118.765 254.079 125.769 252.822 101.72 236.55 92.797 236.55 108.723 250.805"/>
        <path class="st6" d="M91.333,201.603c-2.1-.87-3.716-1.492-4.282-1.63l-.166,16.313h4.296l.152-14.683Z"/>
        <polygon class="st6" points="90.435 290.256 90.973 236.55 86.691 236.55 86.153 290.256 90.435 290.256"/>
        <path class="st6" d="M87.106,140.853l.843,20.982c.691-.111,3.136-.953,6.036-1.989l-6.202-25.029c-.193,1.796-.442,3.881-.677,6.036Z"/>
        <path class="st6" d="M114.746,153.119c-1.243.428-2.707.939-4.254,1.506,4.669,11.617,8.716,28.289-.525,54.714v.014c1.865,1.064,3.315,1.906,3.881,2.224,10.166-29.284,4.103-50.473.898-58.457Z"/>
        <path class="st1" d="M110.491,154.624c1.533-.566,3.011-1.077,4.254-1.506,3.205,7.984,9.269,29.173-.898,58.457-.566-.318-2.017-1.16-3.881-2.224l-.083.249-.249-.111c-.635-.29-1.34-.58-2.017-.884.249.138.483.276.718.414,1.934,1.105,3.826,2.182,5.525,3.163l.276.152.097-.29c1.216-3.495,2.169-6.851,2.97-10.111.111-.428.221-.856.304-1.271.649-2.846,1.133-5.553,1.506-8.191,2.804-19.642-1.437-33.718-3.895-39.754l-.083-.221-.235.069c-1.298.442-2.859.995-4.489,1.589l.014.055c.069.124.11.276.166.414Z"/>
        <polygon class="st1" points="90.973 236.55 90.435 290.256 86.153 290.256 86.153 290.78 90.932 290.78 91.471 236.55 90.973 236.55"/>
        <path class="st1" d="M87.106,140.853c.249-2.155.483-4.227.691-6.036l6.174,25.029c.152-.055.318-.111.483-.166l-6.506-26.355-.497.041c-.152,1.243-.304,2.666-.483,4.172l.138,3.315Z"/>
        <path class="st1" d="M91.664,216.286l.138-14.49c-.166-.069-.318-.124-.47-.193l-.152,14.683h.483Z"/>
        <polygon class="st0" points="83.473 290.256 85.655 290.256 86.208 236.55 79.909 236.564 78.707 290.256 83.473 290.256"/>
        <path class="st0" d="M86.415,216.286l.166-16.714c.152-.262.345-.704,22.999,9.338,9.13-26.245,5.042-42.807.373-54.299-2.528.856-6.174,2.196-9.697,3.481-12.1,4.42-12.625,4.475-12.791,4.075l-.028-.083-1.077-26.728c-1.74,11.023-6.768,29.477-6.838,29.684l-.028.124-.111.041-36.66,14.531h23.427v11.147c2.832,1.312,5.843,2.486,9.048,3.743,1.768.691,3.605,1.409,5.429,2.155l.166.069v.18l-.428,19.269h6.05v-.014Z"/>
        <path class="st1" d="M41.301,179.75l.041.221.055.276h24.242v10.954l.152.069c2.887,1.354,5.967,2.555,9.213,3.812,1.727.677,3.495,1.368,5.263,2.086l-.428,19.117h.511l.428-19.269v-.166l-.166-.069c-1.823-.746-3.66-1.464-5.429-2.155-3.191-1.243-6.216-2.431-9.048-3.743v-11.147h-23.413l36.66-14.531.111-.041.028-.124c.055-.207,5.083-18.662,6.838-29.684l1.077,26.728.028.097c.166.401.677.345,12.791-4.075,3.522-1.285,7.169-2.624,9.697-3.481,4.655,11.506,8.744,28.054-.373,54.299-22.64-10.056-22.847-9.6-22.999-9.338l-.166,16.714h.483l.166-16.313c.58.138,2.182.774,4.282,1.63.152.069.304.124.47.193,4.296,1.768,10.539,4.475,15.802,6.796.677.304,1.381.608,2.017.884l.249.111.083-.249v-.014c9.241-26.425,5.194-43.111.525-54.714-.055-.138-.097-.29-.152-.414l-.014-.055-.069-.166-.235.069c-2.555.87-6.313,2.238-9.945,3.564-1.892.691-3.812,1.395-5.636,2.044-.166.055-.318.111-.483.166-2.901,1.036-5.332,1.879-6.036,1.989l-.843-20.982-.138-3.301-.18-5.056-.497-.014c-1.133,9.876-6.699,30.513-7.183,32.309l-37.779,14.973Z"/>
        <polygon class="st1" points="86.153 290.256 86.691 236.55 86.208 236.55 85.655 290.256 83.473 290.256 78.707 290.256 79.909 236.564 79.398 236.564 79.357 238.567 78.182 290.518 78.182 290.78 82.948 290.78 86.153 290.78 86.153 290.256"/>
        <path class="st6" d="M91.664,216.286h-30.196l-3.868,3.923,3.467,2.942-3.122,3.426,3.481,3.978h1.616l.014,2.735,6.603,3.26h32.834l8.067-3.177v-2.832h1.45l4.572-3.978-4.116-3.412,4.158-3.481-4.669-3.37h-20.291v-.014ZM109.524,232.669l-7.031,2.845h-32.585l-5.815-2.859-.014-2.307,45.445.014v2.307ZM114.981,226.591l-3.357,2.915-49.727.028-2.569-2.928,2.569-2.804h49.727l3.357,2.79ZM114.939,219.726l-3.315,2.79h-49.727l-2.776-2.362,2.776-2.818h49.727l3.315,2.39Z"/>
        <polygon class="st5" points="61.897 217.336 59.12 220.154 61.897 222.516 111.624 222.516 114.939 219.726 111.624 217.336 61.897 217.336"/>
        <polygon class="st5" points="61.897 223.801 59.341 226.605 61.897 229.533 111.624 229.505 114.981 226.591 111.624 223.801 61.897 223.801"/>
        <polygon class="st5" points="64.079 230.348 64.093 232.655 69.908 235.528 102.494 235.514 109.524 232.669 109.524 230.362 64.079 230.348"/>
        <path class="st6" d="M297.107,269.412c1.34,1.285,2.625,2.707,3.923,4.103l1.423-8.937-5.346,4.835Z"/>
        <path class="st6" d="M394.945,311.417l-5.373-9.365c-7.722,5.843-19.753,5.498-33.221.677-.414,3.37-1.644,6.368-3.357,9.144,16.617,6.465,31.674,6.768,41.951-.456Z"/>
        <path class="st6" d="M347.18,298.834c-12.321-6.064-25.209-15.567-37.102-27.806l-5.76,6.105c.262.304.483.622.746.925,12.805,13.178,26.231,23.206,39.16,29.74,1.879-2.431,2.873-5.442,2.956-8.965Z"/>
        <path class="st6" d="M278.86,227.06c-3.702-.304-6.824.304-9.49,1.589,5.235,10.94,12.639,22.308,21.604,33.552l5.981-6.174c-7.459-9.655-13.564-19.518-18.095-28.966Z"/>
        <path class="st6" d="M272.257,186.519l-8.316-2.5c-4.489,9.876-3.288,22.239,1.616,35.61,2.597-1.602,5.636-2.459,9.02-2.721-4.337-12.087-5.567-22.875-2.321-30.389Z"/>
        <path class="st6" d="M251.565,263.969l-5.456-2.859c-4.268,9.393.166,23.745,9.697,37.544l5.47-5.663c-8.164-11.396-12.653-22.212-9.711-29.021Z"/>
        <path class="st6" d="M262.298,307.108c17.819,20.554,40.887,28.151,52.02,20.319l-3.868-5.525c-9.089,6.893-26.217-1.547-41.508-19.186-1.298-1.492-2.514-2.984-3.716-4.489l-5.829,5.263c.967,1.216,1.879,2.431,2.901,3.619Z"/>
        <path class="st6" d="M270.682,260.668c-4.089-1.533-7.832-2.252-11.092-2.058,2.832,7.459,7.183,15.277,12.763,22.902l7.155-7.404c-3.439-4.586-6.409-9.089-8.827-13.44Z"/>
        <path class="st6" d="M266.207,251.151c-2.445-6.644-3.108-12.556-1.146-17.073l-7.031-3.688c-2.583,5.663-2.666,12.75-.843,20.485,2.721-.47,5.746-.387,9.02.276Z"/>
        <path class="st6" d="M321.929,318.407c9.628,2.39,18.247,1.796,24.187-2.362l-5-7.155c-4.862,3.674-11.534,3.799-19.035,1.271.442,2.942.345,5.677-.152,8.246Z"/>
        <path class="st6" d="M313.835,306.417c-8.523-4.752-17.639-12.294-26.328-22.308-.995-1.146-1.892-2.307-2.845-3.453l-7.556,6.838c.622.76,1.188,1.547,1.837,2.293,11.216,12.929,24.007,21.811,35.873,26.425.483-2.818.138-6.119-.981-9.794Z"/>
        <path class="st0" d="M363.797,238.608l2.169-2.514c1.202-1.395,2.984-3.384,5.028-5.65-1.63-2.072-3.274-4.144-5.028-6.216l-2.169,14.379Z"/>
        <path class="st0" d="M373.867,212.46c2.238,2.583,4.379,5.18,6.451,7.777,13.661-14.849,31.494-33.897,35.486-38.166,1.133,1.644,3.481,5.083,5.442,8.136l1.326,2.072.428-2.417c1.34-7.556,3.37-18.427,4.13-22.695l.221-1.202-23.234,1.589,7.708,9.227-35.237,33.193,1.671-23.869-14.711,15.415c3.495,3.467,6.976,7.072,10.318,10.94Z"/>
        <path class="st0" d="M259.397,303.489l5.829-5.263,11.865-10.733,7.556-6.838,7.128-6.451c-2.252-2.086-4.572-3.951-6.907-5.663l-5.373,5.567-7.155,7.404-11.064,11.479-5.47,5.663-32.475,33.635,2.044,1.975,34.022-30.776Z"/>
        <path class="st0" d="M360.205,217.902c-2.031-2.182-4.061-4.393-6.174-6.423l-29.229,30.596c2.155,2.113,4.296,4.282,6.354,6.616l29.049-30.79Z"/>
        <path class="st0" d="M297.107,269.412l5.346-4.835-1.423,8.937c.774.829,1.561,1.547,2.307,2.403.345.401.635.815.981,1.216l5.76-6.105,14.78-15.678c-2.058-2.334-4.213-4.558-6.395-6.644l-9.061,9.49-.594-14.435-11.838,12.28-5.981,6.174-.995,1.036c2.404,1.865,4.779,3.923,7.114,6.161Z"/>
        <path class="st5" d="M364.184,222.032c.635.732,1.16,1.464,1.782,2.196,1.754,2.072,3.398,4.144,5.028,6.216,22.557,28.718,32.088,56.04,20.734,69.452l10.47,10.042c17.778-19.877,5.857-54.949-21.88-89.689-2.058-2.597-4.213-5.194-6.451-7.777-3.343-3.868-6.824-7.473-10.332-10.94-32.82-32.337-71.469-46.854-90.518-32.461-1.243.939-1.616,2.003-2.638,3.136,0,0,6.34,11.396,7.224,10.719,14.877-11.23,48.498,1.754,76.414,28.566,2.113,2.031,4.144,4.241,6.174,6.423,1.326,1.381,2.721,2.652,3.992,4.116Z"/>
        <path class="st5" d="M270.682,260.668c4.545,1.713,9.379,4.351,14.186,7.873,2.334,1.713,4.655,3.578,6.907,5.663,2.252,2.072,4.448,4.282,6.534,6.672,7.832,9.034,13.219,17.971,15.526,25.527,1.119,3.674,1.464,6.976.967,9.794-.332,1.975-.939,3.785-2.155,5.208l5.456,5.221c2.1-2.348,3.246-5.18,3.826-8.26.497-2.569.594-5.304.152-8.246-1.464-9.614-7.735-20.927-17.004-32.102-.262-.304-.483-.608-.746-.925-.345-.401-.635-.815-.981-1.216-.746-.856-1.533-1.589-2.307-2.403-1.298-1.395-2.597-2.818-3.923-4.103-2.334-2.238-4.71-4.296-7.114-6.174-8.164-6.395-16.479-10.567-23.786-12.087-3.274-.677-6.299-.76-9.006-.29-2.376.401-4.572,1.105-6.354,2.445-.649.483-.856,1.036-1.381,1.63,0,0,3.288,5.94,3.757,5.581,1.671-1.257,3.895-1.768,6.354-1.92,3.246-.138,7.003.58,11.092,2.113Z"/>
        <path class="st5" d="M278.86,227.06c11.258.953,26.342,8.965,39.602,21.645,2.182,2.1,4.324,4.31,6.395,6.644.193.207.387.373.566.58,13.827,15.94,22.004,31.784,21.742,42.89-.083,3.522-1.077,6.534-2.956,8.951-.11.152-.152.345-.276.497l7.031,6.755c.87-.967,1.368-2.1,2.017-3.163,1.713-2.776,2.942-5.774,3.357-9.144,1.823-14.642-7.956-34.243-24.422-53.222-.262-.29-.525-.525-.787-.815-2.058-2.334-4.199-4.503-6.354-6.616-17.101-16.811-36.384-26.245-50.211-25.154-3.384.262-6.437,1.119-9.02,2.721-.442.276-1.008.373-1.437.691-.829.635-1.077,1.34-1.768,2.1,0,0,4.268,7.666,4.862,7.21.622-.47,1.45-.635,2.155-.981,2.68-1.285,5.815-1.906,9.503-1.588Z"/>
        <path class="st1" d="M239.7,572.182h5.871v-8.578h-5.871v-28.648h-13.993l-18.51,29.781v7.445h21.673v11.686h10.83v-11.686ZM217.875,563.466l6.547-10.678c1.658-3.08,2.928-5.94,4.517-9.117h.29c-.221,3.177-.373,6.174-.373,9.117v10.816h-10.981v-.138h0Z"/>
        <path d="M239.7,572.182h5.871v-8.578h-5.871v-28.648h-13.993l-18.51,29.781v7.445h21.673v11.686h10.83v-11.686ZM217.875,563.466l6.547-10.678c1.658-3.08,2.928-5.94,4.517-9.117h.29c-.221,3.177-.373,6.174-.373,9.117v10.816h-10.981v-.138h0Z"/>
        <path class="st1" d="M226.342,0C208.896,0,191.644,1.34,174.557,3.55,112.591,11.575,53.512,33.773,1.437,69.314l-1.437.995v242.697l.014.414c.912,7.39,2.017,14.628,3.274,21.7,1.077,5.995,2.321,11.796,3.619,17.57.235,1.05.414,2.155.649,3.191,1.409,6.023,2.97,11.852,4.6,17.626.207.732.373,1.492.58,2.224,1.713,5.898,3.55,11.631,5.47,17.266.193.553.345,1.146.539,1.685,1.879,5.456,3.895,10.733,5.953,15.954.276.691.511,1.437.801,2.113,1.989,4.931,4.089,9.724,6.23,14.476.401.884.774,1.823,1.174,2.707,2.169,4.71,4.42,9.255,6.713,13.758.428.829.815,1.713,1.243,2.542,2.086,4.02,4.254,7.887,6.423,11.755.691,1.216,1.34,2.514,2.044,3.716,1.948,3.384,3.964,6.616,5.967,9.863.967,1.561,1.906,3.205,2.887,4.752,1.865,2.928,3.771,5.705,5.677,8.509,1.174,1.74,2.307,3.55,3.495,5.235,1.699,2.431,3.426,4.724,5.125,7.059,1.437,1.961,2.846,3.978,4.296,5.884s2.915,3.702,4.365,5.539c1.727,2.196,3.453,4.434,5.18,6.561,1.229,1.492,2.473,2.887,3.702,4.351,1.975,2.321,3.937,4.683,5.898,6.907,1.064,1.202,2.113,2.307,3.177,3.481,2.127,2.362,4.268,4.738,6.395,6.976.884.925,1.754,1.782,2.638,2.694,2.293,2.362,4.572,4.738,6.824,6.948.718.718,1.409,1.354,2.127,2.031,2.376,2.321,4.766,4.627,7.1,6.782.041.041.083.097.138.138l2.749,2.555.028-.055,2.169-2.984c.553-.76,1.188-1.409,1.754-2.141-.912-.843-1.81-1.602-2.735-2.459-1.934-1.796-3.633-3.757-5.525-5.581-4.6-4.434-9.255-9.117-13.979-14.145-3.136-3.343-6.202-6.727-9.2-10.153-4.061-4.641-8.136-9.545-12.183-14.656-3.398-4.296-6.699-8.633-9.904-13.04-3.329-4.572-6.616-9.324-9.863-14.214-2.859-4.324-5.622-8.661-8.302-13.081-3.315-5.47-6.561-11.161-9.711-16.99-1.851-3.467-3.688-6.934-5.442-10.457-3.37-6.755-6.575-13.772-9.642-20.996-1.008-2.403-2.086-4.766-3.053-7.197-3.246-8.081-6.202-16.534-8.979-25.195-.801-2.5-1.602-4.987-2.362-7.514-2.569-8.592-4.89-17.46-6.934-26.618-.553-2.5-1.036-5.014-1.533-7.528-1.74-8.606-3.288-17.418-4.503-26.507-.124-.925-.345-1.81-.47-2.735v-.332l-.083-.58V73.845C71.649,29.864,147.566,6.644,226.342,6.644s154.749,23.22,219.726,67.173l.014,85.089.028,153.464c-.014.055-.014.11-.028.166h0v.028c-1.478,10.705-3.412,20.968-5.553,31.01-.483,2.252-.939,4.517-1.45,6.768-2.031,8.827-4.324,17.405-6.81,25.706-1.229,4.144-2.569,8.219-3.909,12.28-1.423,4.185-2.901,8.246-4.393,12.28-3.163,8.537-6.575,16.921-10.263,25.14-.11.221-.221.442-.304.663-17.943,39.658-42.268,75.655-72.975,107.77-4.047,4.268-8.053,8.316-11.99,12.114-1.837,1.768-3.467,3.647-5.346,5.387-.442.414-.884.787-1.34,1.202.553.732,1.202,1.381,1.74,2.113l2.182,3.011.028.041,1.533-1.437.981-.912.235-.221c.318-.304.663-.649.995-.953,2.597-2.459,5.249-4.973,7.915-7.639.566-.566,1.146-1.188,1.713-1.754,2.514-2.528,5.014-5.069,7.556-7.777.691-.718,1.381-1.506,2.058-2.252,2.445-2.624,4.89-5.277,7.335-8.081.774-.87,1.533-1.823,2.307-2.707,2.39-2.749,4.779-5.525,7.169-8.454.815-.995,1.616-2.072,2.431-3.094,2.334-2.915,4.683-5.843,7.003-8.923.884-1.188,1.768-2.459,2.652-3.66,2.224-3.025,4.448-6.036,6.644-9.186.981-1.437,1.948-2.956,2.928-4.393,2.058-3.08,4.144-6.119,6.174-9.324,1.036-1.63,2.031-3.384,3.067-5.042,1.948-3.163,3.881-6.285,5.774-9.559,1.036-1.81,2.031-3.743,3.067-5.581,1.823-3.274,3.647-6.506,5.415-9.904,1.077-2.072,2.086-4.282,3.149-6.409,1.63-3.301,3.301-6.575,4.876-9.987,1.091-2.348,2.086-4.835,3.149-7.224,1.45-3.329,2.956-6.616,4.337-10.07,1.146-2.818,2.182-5.774,3.274-8.661,1.202-3.177,2.459-6.285,3.605-9.559,1.243-3.536,2.362-7.238,3.522-10.885.87-2.763,1.823-5.442,2.652-8.274,1.368-4.586,2.569-9.351,3.785-14.089.511-2.017,1.119-3.964,1.602-6.036,1.437-5.857,2.68-11.879,3.868-17.971.221-1.05.47-2.058.677-3.136,1.367-7.197,2.583-14.559,3.605-22.087V70.309l-1.478-.995C384.862,23.966,307.066,0,226.342,0Z"/>
        <path class="st1" d="M258.983,503.199c-10.567-2.846-21.493-4.489-32.64-4.489-13.841,0-27.391,2.403-40.238,6.727-.622.221-1.271.331-1.879.553-5.221,1.865-10.305,4.103-15.236,6.616-.207.11-.414.249-.622.345-13.343,6.893-25.402,16.189-35.638,27.447-.028.041-.069.083-.111.124.856.815,1.602,1.685,2.473,2.5.76.704,1.506,1.354,2.265,2.031,3.467-3.84,7.128-7.487,11.023-10.816.276-.249.58-.442.87-.691,2.624-2.196,5.401-4.227,8.191-6.188,2.307-1.616,4.683-3.108,7.1-4.545.829-.497,1.671-.995,2.514-1.464.387-.235.774-.47,1.16-.691,2.818-1.561,5.691-2.997,8.619-4.324.262-.11.511-.221.774-.318,2.776-1.257,5.553-2.514,8.412-3.536.801-.29,1.63-.47,2.431-.746.663-.221,1.34-.401,2.017-.608,3.163-.995,6.326-1.975,9.559-2.694,8.578-1.948,17.377-3.053,26.314-3.053,34.063,0,66.455,14.697,89.053,39.782.29-.276.566-.511.87-.787,1.34-1.243,2.5-2.597,3.799-3.826-16.438-18.137-37.682-31.066-61.082-37.351Z"/>
        <path class="st0" d="M221.977,615.873l4.351,2.127,4.365-2.086c5.042-2.431,13.136-6.547,23.123-12.418,16.562-9.78,41.688-26.48,67.905-50.611.442-.414.884-.787,1.34-1.202,1.879-1.74,3.509-3.619,5.346-5.387,4.116-3.964,8.081-8.025,11.99-12.114,30.72-32.116,55.032-68.113,72.975-107.77.097-.221.207-.442.304-.663,3.702-8.233,7.114-16.603,10.263-25.14,1.492-4.075,3.025-8.122,4.393-12.28,1.354-4.061,2.68-8.136,3.909-12.28,2.514-8.44,4.835-16.99,6.81-25.706.511-2.252.967-4.517,1.45-6.768,2.141-10.166,4.089-20.457,5.553-31.01v-.028h0v-156.296l-4.517-2.942c-63.913-41.992-138.339-64.19-215.195-64.19S75.102,111.292,11.161,153.284l-4.517,2.956v2.113l.083,155.011v.345c.111.925.345,1.81.47,2.735,1.188,8.937,2.735,17.778,4.503,26.507.511,2.514.981,5.028,1.533,7.528,2.003,8.979,4.324,17.86,6.934,26.618.76,2.528,1.561,5.014,2.362,7.514,2.735,8.523,5.677,16.949,8.979,25.195.967,2.431,2.044,4.793,3.053,7.197,3.011,7.1,6.216,14.103,9.642,20.996,1.754,3.522,3.591,6.989,5.442,10.457,3.08,5.746,6.326,11.41,9.711,16.99,2.666,4.42,5.442,8.771,8.302,13.081,3.177,4.807,6.465,9.545,9.863,14.214,3.205,4.406,6.506,8.758,9.904,13.04,3.937,4.959,7.984,9.863,12.183,14.656,2.997,3.426,6.064,6.81,9.2,10.153,4.517,4.821,9.186,9.517,13.979,14.145,1.892,1.823,3.591,3.785,5.525,5.581.912.856,1.81,1.616,2.735,2.459,25.955,23.717,50.805,40.362,67.298,50.211,10.457,6.257,18.634,10.457,23.634,12.888ZM16.631,161.641c62.325-40.915,134.83-62.546,209.711-62.546s147.442,21.631,209.766,62.546l.041,150.218c-10.332,74.121-38.649,138.946-83.763,193.743-.856,1.036-1.727,2.072-2.597,3.122-9.255,11.009-19.062,21.659-29.698,31.825-1.312,1.243-2.473,2.597-3.799,3.826-.29.276-.58.511-.87.787-25.734,23.759-50.418,40.155-66.648,49.741-9.669,5.705-17.501,9.683-22.377,12.031l-.014-.014c-4.848-2.348-12.75-6.437-22.916-12.487-16.175-9.655-40.583-26.01-66.082-49.354-.76-.691-1.506-1.34-2.265-2.031-.87-.815-1.616-1.685-2.473-2.5-1.671-1.561-3.163-3.232-4.793-4.835-2.528-2.473-4.973-4.973-7.431-7.501-58.14-59.797-93.239-132.123-103.737-215.112l-.055-151.461Z"/>
      </g>
    </g>
  </g>
</svg>